<?xml version="1.0" standalone="no"?>
<!DOCTYPE svg PUBLIC "-//W3C//DTD SVG 20010904//EN"
 "http://www.w3.org/TR/2001/REC-SVG-20010904/DTD/svg10.dtd">
<svg version="1.0" xmlns="http://www.w3.org/2000/svg"
 width="400.000000pt" height="400.000000pt" viewBox="0 0 400.000000 400.000000"
 preserveAspectRatio="xMidYMid meet">
<metadata>
Created by potrace 1.14, written by Peter Selinger 2001-2017
</metadata>
<g transform="translate(0.000000,400.000000) scale(0.100000,-0.100000)"
fill="#000000" stroke="none">
<path d="M0 2000 l0 -1760 2000 0 2000 0 0 1760 0 1760 -2000 0 -2000 0 0
-1760z m1725 795 c87 -35 167 -85 222 -138 l42 -40 60 56 c67 61 173 118 266
142 75 19 221 19 302 0 180 -42 337 -172 415 -344 56 -121 58 -146 58 -743 l0
-548 -150 0 -149 0 -3 558 -3 557 -25 50 c-31 64 -98 131 -158 158 -71 33
-198 31 -272 -4 -62 -29 -130 -92 -154 -143 -32 -68 -36 -140 -36 -657 l0
-519 -150 0 -149 0 -3 558 c-3 545 -3 558 -24 603 -31 67 -87 124 -152 156
-49 24 -69 27 -147 27 -78 0 -97 -3 -141 -26 -64 -33 -136 -113 -160 -176 -17
-43 -19 -93 -22 -594 l-3 -548 -149 0 -150 0 0 805 0 805 150 0 150 0 0 -56 0
-56 39 35 c99 90 180 118 321 114 87 -3 117 -9 175 -32z"/>
</g>
</svg>
